<?xml version="1.0" encoding="UTF-8"?>
<!DOCTYPE svg PUBLIC "-//W3C//DTD SVG 1.1//EN" "http://www.w3.org/Graphics/SVG/1.1/DTD/svg11.dtd">
<!-- Creator: CorelDRAW 2019 -->
<svg xmlns="http://www.w3.org/2000/svg" xml:space="preserve" width="9600px" height="5400px" version="1.1" style="shape-rendering:geometricPrecision; text-rendering:geometricPrecision; image-rendering:optimizeQuality; fill-rule:evenodd; clip-rule:evenodd" viewBox="0 0 96000 54000" xmlns:xlink="http://www.w3.org/1999/xlink" xmlns:xodm="http://www.corel.com/coreldraw/odm/2003">
 <defs>
  <style type="text/css">
   <![CDATA[
   .strD {
    stroke: aqua;
    stroke-width: 40;
    stroke-miterlimit: 22.9256
   }

   .strP {
    stroke: black;
    stroke-width: 40;
    stroke-miterlimit: 22.9256
   }

   .strPo {
    stroke: lime;
    stroke-width: 40;
    stroke-miterlimit: 22.9256
   }

   .strPt {
    stroke: yellow;
    stroke-width: 40;
    stroke-miterlimit: 22.9256
   }

   .filD {
    fill: none;
    fill-rule: nonzero
   }

   .filP {
    fill: none;
    fill-rule: nonzero
   }

   .filPA {
    fill: green
   }

   .filPL {
    fill: red
   }

   .filPo {
    fill: blue
   }

   .filBASE {
    fill: #E6E6E6
   }

   .filNONE {
    fill: none
   }

   .filNONEnz {
    fill: none;
    fill-rule: nonzero
   }

   .filBLUE {
    fill: blue
   }

   .filFUCHSIA {
    fill: fuchsia
   }

   .filLIME {
    fill: lime
   }

   .filRED {
    fill: red
   }

   .filWHITE {
    fill: white
   }

   .filWHITEnz {
    fill: white;
    fill-rule: nonzero
   }

   .filHFE {
    fill: #FEFEFE
   }

   .filH49 {
    fill: #494949
   }

   .filH49nz {
    fill: #494949;
    fill-rule: nonzero
   }

   .filCCC {
    fill: #CCCCCC
   }

   .filCDD {
    fill: #CCCCDD
   }

   .filHE6 {
    fill: #E6E6E6
   }

   .filH0CF {
    fill: #0CF
   }

   .filH0FC {
    fill: #0FC
   }

   .filH356 {
    fill: #356
   }

   .filH456 {
    fill: #456
   }

   .filH633 {
    fill: #633
   }

   .filH69F {
    fill: #69F
   }

   .filH89A {
    fill: #89A
   }

   .filH99F {
    fill: #99F
   }

   .filHF9C {
    fill: #F9C
   }

   .fntA3 {
    font-weight: bold;
    font-size: 300px;
    font-family: 'Arial'
   }

   .fntA4 {
    font-weight: bold;
    font-size: 400px;
    font-family: 'Arial'
   }

   .fntA5 {
    font-weight: bold;
    font-size: 500px;
    font-family: 'Arial'
   }

   .fntA6 {
    font-weight: bold;
    font-size: 600px;
    font-family: 'Arial'
   }

   .fntA7 {
    font-weight: bold;
    font-size: 700px;
    font-family: 'Arial'
   }

   .fntA8 {
    font-weight: bold;
    font-size: 800px;
    font-family: 'Arial'
   }

   .fntA9 {
    font-weight: bold;
    font-size: 900px;
    font-family: 'Arial'
   }

   .fntA10 {
    font-weight: bold;
    font-size: 1000px;
    font-family: 'Arial'
   }

   .fntA11 {
    font-weight: bold;
    font-size: 1100px;
    font-family: 'Arial'
   }

   .fntA12 {
    font-weight: bold;
    font-size: 1200px;
    font-family: 'Arial'
   }

   .fntA13 {
    font-weight: bold;
    font-size: 1300px;
    font-family: 'Arial'
   }

   .fntA14 {
    font-weight: bold;
    font-size: 1400px;
    font-family: 'Arial'
   }

   .fntA15 {
    font-weight: bold;
    font-size: 1500px;
    font-family: 'Arial'
   }
   ]]>
  </style>
  <marker id="lineB" viewBox="0 0 10 10" refX="5" refY="5" markerWidth="6" markerHeight="6" orient="auto">
   <path d="M 0 2 L 10 5 L 0 8 z" class="filPA" />
  </marker>
  <marker id="lineE" viewBox="0 0 10 10" refX="5" refY="5" markerWidth="6" markerHeight="6" orient="auto">
   <polygon points="3,1 3,9 7,9 7,1" class="filPL" />
  </marker>
  <symbol id="kiosk">
   <g>
    <path class="filH49nz" d="M532 810l-165 305 0 511 276 126 0 -502c0,-2 1,-4 1,-6l149 -321 -262 -113 0 0z" />
    <path class="filH49nz" d="M879 964l-42 -21 -144 309 0 501 52 -22 0 -486c0,-2 1,-4 2,-6l133 -275 0 0 0 0z" />
    <path class="filH49nz" d="M668 1832l345 -154 -218 -92 0 154c1,7 -5,14 -14,18l-101 42 -4 1 -9 0c-2,0 -4,0 -6,0l-2 0 -4 -1 -328 -149c-7,-3 -12,-9 -12,-16l0 -22 -71 32 423 186 0 0 0 0z" />
   </g>
   <path class="filH49nz" d="M1275 1228c-17,5 -34,4 -48,-4l-1205 -536c-22,-11 -29,-34 -17,-55l334 -602c14,-24 48,-37 76,-28 2,1 4,1 5,2l1215 527c23,11 31,35 19,56l-344 608c-6,14 -19,26 -35,32l0 0 0 0z" />
  </symbol>
  <symbol id="elevator">
   <path class="filH49nz" d="M736 80l-469 0c-52,0 -94,42 -94,94l0 1313c0,52 42,94 94,94l469 0 0 -1500z" />
   <path class="filH49nz" d="M1393 80l-469 0 0 1500 469 0c52,0 94,-42 94,-94l0 -1313c0,-52 -42,-94 -94,-94z" />
   <polygon class="filWHITE" points="1205,924 1064,736 1346,736 " />
   <polygon class="filWHITE" points="455,736 596,924 314,924 " />
  </symbol>
  <symbol id="escalator">
   <path class="filH49" d="M1013 180c-14,0 -25,12 -25,27 0,0 -3,81 -7,200l-158 0c11,-53 5,-148 -27,-192 -17,-23 -35,-35 -52,-35 -34,0 -50,42 -53,50 -9,21 -48,119 -94,234 -74,185 -155,394 -176,439 -6,13 -11,25 -38,25 -35,0 -86,-18 -126,-33 -11,-4 -22,-8 -31,-11 -15,-5 -28,-7 -40,-7 -83,0 -123,98 -123,299 0,273 123,303 175,303 20,0 40,-4 60,-11 44,-17 80,-33 109,-49l539 0c0,9 -1,15 -1,17 -1,36 28,44 46,44 28,0 47,-16 47,-38l0 -1234c0,-15 -11,-27 -26,-27l0 0zm-519 1027c-20,75 -61,132 -188,183 -16,6 -32,9 -48,9 -42,0 -134,-12 -134,-229 0,-160 32,-208 98,-208 10,0 21,2 32,6 7,2 16,5 25,9 32,12 73,24 101,26 32,3 62,-11 74,-41 12,-31 243,-641 254,-669 10,-26 19,-57 34,-62 14,-4 32,8 41,42 12,45 7,85 3,112 -3,16 -17,21 -23,21 0,0 -23,-2 -33,31 -35,116 -211,691 -227,741 -3,10 -6,20 -9,30l0 0zm455 94l-429 0c9,-20 15,-41 21,-64 0,-1 0,-1 1,-2l409 0c-1,24 -2,46 -2,66l0 0zm6 -164l-385 0c4,-15 9,-31 14,-49l373 0c-1,17 -1,33 -2,49l0 0zm5 -143l-351 0c4,-16 9,-33 13,-49l339 0c-1,17 -1,33 -2,49l0 0zm4 -125l-321 0c5,-18 10,-36 15,-54l309 0c-1,18 -1,36 -2,54l0 0zm5 -129l-291 0c5,-17 9,-34 14,-50l279 0c-1,17 -1,33 -2,50l0 0zm4 -118l-263 0c5,-19 10,-36 14,-51l251 0c-1,17 -1,33 -2,51l0 0zm4 -113l-236 0c6,-20 9,-35 13,-45l224 0c-1,15 -1,29 -2,45l0 0z" />
   <path class="filH49" d="M1062 209l0 1234c0,21 20,38 47,38 18,0 47,-8 46,-44 0,-2 0,-8 -1,-17l539 0c29,16 64,33 109,49 20,8 40,11 60,11 53,0 175,-30 175,-303 0,-201 -40,-299 -123,-299 -13,0 -26,2 -40,7 -9,3 -20,7 -31,11 -41,15 -91,33 -126,33 -27,0 -32,-12 -38,-25 -21,-44 -102,-253 -176,-439 -46,-114 -85,-213 -94,-234 -3,-8 -19,-50 -53,-50 -18,0 -35,12 -52,35 -32,43 -38,139 -27,192l-158 0c-4,-120 -7,-200 -7,-200 0,-15 -11,-27 -25,-27 -14,0 -26,12 -26,27l0 0zm536 971c-16,-50 -192,-626 -227,-741 -10,-33 -33,-31 -33,-31 -5,0 -20,-5 -23,-21 -5,-27 -10,-67 3,-112 9,-34 28,-46 41,-42 15,4 24,36 34,62 12,28 242,639 254,669 12,30 42,44 74,41 28,-2 68,-14 101,-26 9,-3 17,-6 25,-9 12,-4 22,-6 32,-6 66,0 98,48 98,208 0,217 -92,229 -134,229 -16,0 -32,-3 -48,-9 -127,-50 -168,-107 -189,-183 -3,-10 -5,-20 -9,-30l0 0zm-449 58l409 0c0,1 0,1 1,2 6,23 13,45 21,64l-429 0c-1,-20 -2,-43 -2,-66l0 0zm-5 -148l373 0c5,18 10,35 14,49l-385 0c-1,-16 -1,-33 -2,-49l0 0zm-5 -143l339 0c5,17 9,33 13,49l-351 0c-1,-16 -1,-33 -2,-49l0 0zm-5 -130l309 0c5,18 10,36 15,54l-321 0c-1,-18 -1,-36 -2,-54l0 0zm-4 -125l279 0c4,16 9,33 14,50l-291 0c-1,-17 -1,-34 -2,-50l0 0zm-4 -118l251 0c4,15 9,32 14,51l-263 0c-1,-17 -1,-34 -2,-51l0 0zm-4 -107l224 0c4,10 7,24 13,45l-236 0c-1,-15 -1,-30 -2,-45l0 0z" />
  </symbol>
  <symbol id="escalator_s">
   <path class="filH49" d="M1438 890c-12,-2 -25,-1 -40,2 -9,2 -20,4 -31,7 -40,9 -90,21 -123,17 -25,-3 -28,-15 -32,-29 -14,-45 -64,-253 -109,-435 -27,-110 -51,-205 -56,-225 -2,-7 -11,-47 -41,-49 -16,-1 -32,9 -49,30 -32,38 -50,139 -45,175 1,9 5,18 11,25l-184 0c4,-7 7,-15 8,-25 4,-46 -13,-137 -45,-175 -17,-21 -34,-31 -49,-30 -30,2 -39,41 -41,49 -5,20 -29,114 -56,225 -45,181 -95,390 -109,435 -4,13 -7,26 -32,29 -33,4 -83,-7 -123,-17 -11,-3 -21,-5 -31,-7 -15,-3 -27,-4 -40,-2 -80,10 -108,112 -85,314 32,275 155,283 206,274 19,-3 38,-11 56,-22 40,-24 71,-46 96,-67 0,0 23,-20 46,-49l579 0c13,18 29,36 47,49 25,21 56,42 96,67 18,11 37,18 56,22 51,9 174,1 206,-274 24,-201 -4,-304 -85,-314l0 0zm-842 304c0,-1 0,-1 0,-2l1 -9 464 0 1 9c0,1 0,1 0,2 2,13 4,26 6,38l-478 0c2,-12 4,-25 6,-38l0 0zm14 -102c2,-14 4,-30 6,-47l0 -1 427 0 0 1c2,17 4,33 6,47l-439 0zm18 -135l0 -4c2,-14 4,-28 6,-43l392 0c2,15 4,29 5,43l1 4 -404 0zm15 -117l1 -9c2,-13 3,-26 5,-38l362 0c2,13 3,26 5,38l1 9 -374 0zm15 -118l2 -16c1,-10 3,-20 4,-30l332 0c1,10 2,20 4,30l2 16 -344 0zm14 -110l3 -19c1,-10 3,-20 4,-29l303 0c1,9 2,18 4,29l2 19 -316 0zm14 -107l3 -20c1,-8 2,-15 3,-21l277 0c1,6 2,13 3,21l3 20 -288 0zm-290 873c-14,9 -29,14 -44,17 -40,7 -130,11 -156,-207 -19,-159 7,-211 70,-219 10,-1 20,-1 31,2 7,2 16,3 24,5 32,7 71,14 98,13 30,-2 56,-18 63,-49 7,-31 144,-629 151,-656 6,-25 10,-54 23,-59 11,-5 29,6 41,36 16,41 16,78 15,103 -1,15 -13,21 -17,21 0,0 -20,0 -25,31 -17,111 -107,675 -116,725 -2,10 -3,20 -4,30 -10,76 -41,137 -153,207l0 0zm777 16c-3,-2 -5,-4 -7,-5 2,2 5,3 7,5zm18 13c1,0 1,0 0,0zm-17 -13c4,3 7,5 10,7 -3,-2 -7,-5 -10,-7zm289 -207c-26,217 -116,213 -156,207 -15,-3 -30,-8 -44,-17 -113,-70 -143,-131 -153,-207 -1,-10 -3,-20 -4,-30 -9,-50 -99,-614 -116,-725 -5,-31 -25,-31 -25,-31 -5,0 -17,-6 -17,-21 -1,-25 -1,-62 15,-103 12,-30 29,-40 41,-36 12,5 16,34 22,59 7,27 143,625 151,655 8,31 33,48 63,49 26,1 66,-6 98,-13 9,-2 17,-4 24,-5 11,-2 22,-3 31,-2 63,8 89,60 70,219l0 0z" />
  </symbol>
  <symbol id="travelator">
   <path class="filH49" d="M1905 1367c8,-25 13,-48 17,-76 12,-97 7,-248 -18,-340 -19,-71 -55,-122 -56,-128l-52 -76 -24 -31c-3,-3 0,0 -3,-3l-24 -31c-8,-12 -16,-22 -24,-33 -17,-23 -31,-42 -48,-65l-144 -195c-21,-28 -53,-74 -72,-98 -9,-12 -16,-21 -24,-32 -8,-11 -15,-21 -24,-33 -11,-14 -18,-30 -27,-28 -14,41 8,79 21,111 5,11 10,22 15,33l88 196c124,275 237,533 340,816 12,34 32,64 58,13zm-109 45l-9 -26c-6,-17 -12,-32 -17,-48l-655 0 0 74 681 0zm-33 -82l-9 -26c-6,-17 -11,-32 -17,-48l-622 0 0 74 648 0zm-32 -81l-9 -26c-6,-17 -11,-32 -17,-48l-590 0 0 74 617 0zm-29 -80l-9 -26c-6,-17 -11,-32 -17,-48l-562 0 0 74 588 0zm-32 -79l-9 -26c-6,-17 -11,-32 -17,-48l-530 0 0 74 557 0zm-30 -78l-9 -26c-6,-17 -11,-32 -17,-48l-500 0 0 74 526 0zm-30 -79l-9 -26c-6,-16 -11,-32 -17,-48l-470 0 0 74 497 0zm-32 -80l-9 -26c-6,-17 -11,-32 -17,-48l-438 0 0 74 464 0zm-29 -80l-9 -26c-6,-17 -11,-32 -17,-48l-409 0 0 74 436 0zm-471 -529l0 0c14,0 26,12 26,26l0 1183c0,14 -12,26 -26,26l0 0c-14,0 -26,-12 -26,-26l0 -1183c0,-14 12,-26 26,-26zm719 1171l-683 0c0,12 1,24 1,35 0,6 1,11 4,11l697 0c5,-1 -14,-36 -19,-47zm-391 -1033l-5 -15c-2,-6 -4,-11 -6,-16l-281 0c0,5 0,10 0,16l0 15 292 0zm54 152l-11 -31c-6,-16 -11,-31 -16,-45l-318 0 0 76 345 0zm60 160l-9 -26c-6,-17 -11,-32 -17,-48l-379 0 0 74 406 0zm-29 -79l-11 -31c-6,-16 -11,-31 -16,-45l-349 0 0 76 377 0zm-60 -162l-9 -32c-4,-13 -7,-24 -9,-34l-299 0 0 66 317 0zm-63 -192c-11,-20 -11,-124 38,-64l93 109c6,6 9,12 15,18 24,28 56,63 77,91 9,12 22,26 31,37 32,35 63,74 94,109l34 41c0,0 1,1 1,1 42,47 80,95 121,140 84,92 124,210 134,338 8,94 13,271 -49,347 -56,69 -125,44 -156,-36l-433 -1131z" />
   <path class="filH49" d="M195 1367c-8,-25 -13,-48 -17,-76 -12,-97 -7,-248 18,-340 19,-71 54,-122 56,-128l52 -76 24 -31c3,-3 0,0 3,-3l24 -31c8,-12 16,-22 24,-33 16,-23 31,-42 48,-65l144 -195c21,-28 53,-74 72,-98 9,-12 16,-21 24,-32 8,-11 15,-21 24,-33 11,-14 18,-30 27,-28 14,41 -8,79 -21,111 -5,11 -10,22 -15,33l-88 196c-124,275 -237,533 -340,816 -12,34 -32,64 -58,13zm109 45l9 -26c6,-17 11,-32 17,-48l655 0 0 74 -681 0zm33 -82l9 -26c6,-17 11,-32 17,-48l622 0 0 74 -648 0zm32 -81l9 -26c6,-17 11,-32 17,-48l590 0 0 74 -617 0zm29 -80l9 -26c6,-17 11,-32 17,-48l562 0 0 74 -588 0zm32 -79l9 -26c6,-17 11,-32 17,-48l530 0 0 74 -557 0zm30 -78l9 -26c6,-17 11,-32 17,-48l500 0 0 74 -526 0zm30 -79l9 -26c6,-16 11,-32 17,-48l470 0 0 74 -497 0zm32 -80l9 -26c6,-17 12,-32 17,-48l438 0 0 74 -464 0zm29 -80l9 -26c6,-17 11,-32 17,-48l409 0 0 74 -436 0zm472 -529l0 0c-14,0 -26,12 -26,26l0 1183c0,14 12,26 26,26l0 0c14,0 26,-12 26,-26l0 -1183c0,-14 -12,-26 -26,-26zm-719 1171l683 0c0,12 -1,24 -1,35 0,6 -2,11 -4,11l-697 0c-5,-1 14,-36 19,-47zm391 -1033l5 -15c2,-6 4,-11 6,-16l281 0c0,5 0,10 0,16l0 15 -292 0zm-53 152l11 -31c6,-16 11,-31 16,-45l318 0 0 76 -345 0zm-60 160l9 -26c6,-17 11,-32 17,-48l379 0 0 74 -406 0zm29 -79l11 -31c6,-16 11,-31 17,-45l349 0 0 76 -377 0zm60 -162l9 -32c4,-13 7,-24 9,-34l299 0 0 66 -317 0zm63 -192c11,-20 11,-124 -38,-64l-93 109c-6,6 -9,12 -15,18 -24,28 -56,63 -77,91 -9,12 -22,26 -31,37 -32,35 -63,74 -94,109l-34 41c0,0 -1,1 -1,1 -42,47 -80,95 -121,140 -84,92 -124,210 -134,338 -8,94 -13,271 49,347 56,69 125,44 156,-36l433 -1131z" />
  </symbol>
  <symbol id="travelator_s">
   <path class="filH49" d="M625 263c4,-20 10,-124 -25,-64l-67 110c-4,6 -7,12 -10,19 -210,342 -352,596 -225,998 15,47 79,166 137,154 20,-4 30,-32 36,-76l153 -1140zm411 0c-4,-20 -10,-124 25,-64l67 110c4,6 7,12 10,19 210,342 352,596 225,998 -15,47 -79,166 -137,154 -20,-4 -30,-32 -36,-76l-153 -1140zm225 1114c14,-25 25,-48 36,-77 36,-97 40,-251 38,-343 -3,-154 -129,-424 -198,-566 -14,-28 -34,-74 -48,-99 -7,-12 -11,-21 -17,-33 -6,-11 0,-1 -6,-13 -50,-110 -7,62 0,97l39 198c30,148 116,887 156,835zm-667 -786l4 -31c2,-16 4,-31 6,-46l454 0c2,15 4,30 6,46l4 31 -473 0zm-21 159l3 -26c2,-17 4,-33 6,-49l497 0c2,16 4,32 6,49l3 26 -515 0zm-23 162l2 -15c2,-21 5,-41 7,-62l542 0c2,21 5,41 7,62l2 15 -560 0zm-22 158l1 -6c3,-22 5,-45 8,-69l587 0c3,23 6,46 8,69l1 6 -605 0zm-22 162c3,-23 6,-48 9,-75l0 -1 630 0 0 1c3,27 6,52 9,75l-648 0zm-17 104c0,-1 0,-2 0,-3l2 -14 677 0 2 14c0,1 0,2 0,3 2,21 5,41 9,61l-699 0c3,-20 6,-40 9,-61l0 0zm13 -82c0,-1 0,-2 0,-3l2 -14 652 0 2 14c0,1 0,2 0,3 2,21 5,41 8,61l-672 0c3,-20 6,-40 8,-61l0 0zm13 -102c3,-23 6,-48 9,-75l0 -1 612 0 0 1c3,27 6,52 9,75l-630 0zm24 -160l1 -6c3,-22 5,-45 8,-68l565 0c3,23 5,46 8,68l1 6 -582 0zm24 -160l2 -15c2,-21 5,-41 7,-61l517 0c2,21 5,41 7,61l2 15 -534 0zm21 -160l3 -26c2,-17 4,-33 6,-49l476 0c2,16 4,32 6,49l3 26 -493 0zm22 -161l4 -31c2,-16 4,-31 5,-46l432 0c2,14 3,30 5,46l4 31 -449 0zm17 -153l4 -15c2,-6 3,-11 4,-16l399 0c1,5 2,10 4,16l4 15 -415 0zm-143 1042l702 0c3,12 5,24 8,36 1,6 1,11 -2,11l-716 0c-5,-1 6,-36 8,-47zm135 -970l4 -33c2,-13 3,-24 4,-34l415 0c1,10 2,21 4,34l4 33 -431 0zm-215 949c-14,-25 -25,-48 -36,-77 -36,-97 -40,-251 -38,-343 4,-154 129,-424 198,-566 14,-28 35,-74 48,-99 7,-12 11,-21 17,-33 6,-11 1,-1 6,-13 50,-110 7,62 0,97l-39 198c-30,148 -116,887 -156,835z" />
  </symbol>
  <symbol id="fire_escape_stair">
   <path class="filH49nz" d="M88 397c-21,-14 -16,-32 -28,-52 -79,21 -89,386 179,458 -50,-159 6,-216 78,-342 45,17 106,133 93,205 -17,96 -73,124 -118,191 322,-116 401,-290 270,-625 -51,12 -69,51 -96,88 -26,-105 -119,-286 -237,-303 36,243 -43,159 -141,380z" />
   <path class="filH49nz" d="M1673 433l505 0 0 1059 -2113 0 0 -132 551 0c25,0 46,-14 46,-31l0 -278 505 0c25,0 46,-14 46,-31l0 -278 414 0c25,0 46,-14 46,-31l0 -278zm230 -433c-12,0 -23,3 -31,8l-1850 1137 18 62c11,0 23,-3 31,-8l41 -30 0 130 92 0 0 -186 -1 0 736 -450 0 326 92 0 0 -383 827 -506 0 270 92 0 0 -309 -46 -62z" />
  </symbol>
  <symbol id="parking-for-disabled">
   <path class="filH49" d="M145 5c-60,12 -97,48 -120,86 -31,51 -23,123 -23,187l0 1031c0,138 -28,255 90,325 51,31 123,23 187,23l1031 0c137,0 256,28 325,-90 31,-52 23,-123 23,-187l0 -1031c0,-52 6,-161 -3,-207 -12,-58 -48,-96 -86,-118 -52,-31 -122,-23 -187,-23 -344,0 -687,0 -1031,0 -53,0 -159,-6 -205,3z" />
   <path class="filWHITE" d="M1157 887c-8,-18 -11,-29 -28,-42 -3,-8 0,-5 -10,-12 -10,-7 -7,-5 -17,-5 -6,-5 3,0 -6,-4 -4,-2 -4,-2 -7,-2l-57 -1c-26,0 -52,0 -78,0 -52,0 -105,1 -158,0 1,-11 2,-22 -3,-29l0 -36c52,1 105,0 157,0 30,0 104,8 102,-54 -2,-60 -75,-50 -109,-50 -52,0 -104,-1 -156,0 -9,-52 2,-128 -23,-168 -62,-100 -211,-57 -205,68 3,60 7,119 10,178 3,46 3,141 12,180 12,46 50,81 104,85 78,6 280,-1 379,1 37,64 75,125 113,189 14,24 41,76 58,95 27,31 75,31 101,-1 33,-39 6,-77 -14,-110 -19,-32 -37,-63 -56,-94 -37,-63 -76,-126 -112,-189z" />
   <path class="filWHITE" d="M307 1070c14,277 280,464 535,395 53,-14 122,-45 161,-80 39,-34 81,-75 110,-131 23,-45 29,-37 4,-78 -13,-23 -33,-51 -43,-74 -11,16 -20,146 -150,230 -245,158 -541,-30 -528,-302 5,-105 62,-195 128,-247l-2 -43 -4 -60c-134,59 -218,249 -211,389z" />
   <path class="filWHITE" d="M645 182c-58,9 -106,60 -96,129 22,146 249,118 225,-37 -9,-55 -63,-103 -129,-93z" />
  </symbol>
  <symbol id="carspa">
   <path class="filH49" d="M145 5c-60,12 -97,48 -120,86 -31,51 -23,123 -23,187l0 1031c0,138 -28,255 90,325 51,31 123,23 187,23l1031 0c137,0 256,28 325,-90 31,-52 23,-123 23,-187l0 -1031c0,-52 6,-161 -3,-207 -12,-58 -48,-96 -86,-118 -52,-31 -122,-23 -187,-23 -344,0 -687,0 -1031,0 -53,0 -159,-6 -205,3z" />
   <path class="filWHITE" d="M669 308l332 0c-1,-35 -29,-56 -52,-68 -39,-21 -61,-18 -95,-25 -1,-6 0,-12 0,-17 0,-3 0,-6 0,-9 0,-2 0,-3 0,-5 1,-5 0,-1 1,-3l-45 -1 0 33c-1,3 -4,4 -10,4 -50,6 -129,31 -131,90zm226 278c-5,3 -8,9 -11,14 -3,5 -7,11 -9,16 -6,11 -11,21 -15,34 -4,13 -7,27 1,39 23,38 104,23 53,-71 -6,-11 -14,-23 -18,-32zm-123 0c-3,8 -13,22 -18,31 -10,19 -26,53 -13,74 20,34 84,20 67,-39 -4,-12 -9,-24 -15,-34 -4,-7 -13,-27 -21,-31zm173 -173c-5,4 -7,8 -10,14 -14,24 -39,65 -23,91 20,33 84,20 66,-39 -3,-12 -9,-24 -15,-34 -5,-10 -15,-24 -19,-32zm-115 1c-5,5 -15,22 -19,30 -10,19 -27,54 -14,75 21,35 84,19 66,-40 -5,-16 -25,-57 -34,-65zm-113 -1c-7,5 -53,72 -33,105 14,23 50,24 64,0 8,-13 6,-25 2,-39 -9,-30 -21,-44 -33,-66zm290 173c-5,5 -15,23 -19,30 -10,21 -27,52 -13,75 15,25 52,22 65,1 7,-13 6,-26 1,-41 -5,-17 -18,-42 -28,-57l-6 -8zm-345 0c-17,20 -49,77 -32,105 18,31 84,23 66,-41 -6,-21 -21,-52 -34,-64zm478 838c-2,66 -1,56 63,56 50,0 44,5 44,-72 -27,16 -71,15 -106,17zm-720 -14c-1,8 -1,50 0,57 4,18 25,13 44,13 60,0 64,10 61,-56 -50,-1 -61,-1 -106,-14zm226 -1059l377 0c9,0 10,1 14,-6 8,-22 -16,-18 -31,-18l-359 0c-24,0 -23,24 -2,24zm307 934c23,0 114,-4 127,4 3,16 0,14 -15,14l-96 0c-123,0 -265,-3 -383,0 -4,-8 -8,-17 6,-18 10,-1 23,0 34,0l329 0zm123 21l-487 0c7,14 18,25 40,25l405 0c23,0 37,-5 43,-25zm24 -4l1 -1 0 0 1 -1 0 0 1 -1 0 0 1 -1 0 0 0 -1 0 0 0 -1 0 -1 0 0 0 -1 0 0 0 0 0 0 0 -1 0 -1 0 0 0 0 0 0 0 0 0 0 0 0 0 0 0 0 0 0 0 0 0 0 0 0 0 0 0 0 0 0 0 0 0 0 0 0 0 0 0 0 0 0 0 0 0 0 0 0 0 0 0 0 0 0 0 0 0 0 0 0 0 0 0 0 0 0 0 0 0 0 0 -1 0 -1 1 -1 1 -1 1 -1 1 -1 1 -1 1 -1 1 -1 1 -1 1 -1 1 -1 1 -1 1 -1 1 -1 1 -1 1 -1 1 -1 1 -1 1 -1 0 0 1 0 0 0 0 0 1 0 0 0 0 0 1 0 0 0 0 0 1 0 0 0 1 0 0 0 1 0 0 0 1 0 0 0 1 0 0 0 1 0 1 0 1 0 1 0 0 0 0 0 0 0 1 0 1 0 0 0 1 0 1 0 1 0 0 0 1 0 1 0 0 0 1 0 1 0 0 0 1 0 0 0 1 0 1 0 1 0 1 0 0 0 1 0 1 0 0 0 1 0 0 0 1 0 1 0 1 0 1 0 1 0 1 0 0 0 1 0 1 0 1 0 1 0 1 0 1 0 1 0 1 0 1 0 1 0 1 0 1 0 1 0 1 0 1 0 1 0 1 0 1 0 1 0 1 0 1 0 1 0 1 -1 1 -1 1 -1 1 0 1 -1 1 -1 1 -1 0 0 1 -1 1 -1 0 0 1 -1 2 -1 1 -1 2 0 2 -1 2 0 2 0 2 -1 2 0 0 0 2 0 0 0 2 0 0 0 2 0 0 0 2 0 2 0 0 0 2 0 0 0 2 0 0 0 2 0 2 0 2 0 2 0 0 0 2 0 0 0 2 0 2 0 2 0 0 0 1 0 0 0 2 0 0 0 1 0 0 0 1 0 0 0 1 0 0 0 1 0 1 0 0 0 1 0 1 1 0 0 1 0 0 0 1 1 1 1 1 1 1 1 1 1 0 0 1 1 1 1 1 1 1 1 0 0 1 1 1 1 1 1 1 1 1 1 1 1 0 2 0 2 0 0 0 2 0 2 0 2 0 1 0 1 0 1 0 1 0 1 0 1 0 1 0 1 0 1 0 1 0 1 0 1 0 1 0 1 0 1 0 1 0 1 0 1 0 1 0 1 0 1 0 1 0 0 0 1 0 1 0 1 0 1 0 0 0 1 0 0 0 1 0 0 0 1 0 1 0 0 0 1 0 1 0 1 0 0 0 1 0 0 0 1 0 1 0 0 0 1 0 0 0 1 0 0 0 1 0 0 0 1 0 1 0 0 0 1 0 1 0 1 0 0 0 1 0 1 0 1 0 0 0 1 0 1 0 1 0 1 0 0 0 1 0 0 -1 1 0 0 0 1 0 1 0 0 0 1 0 0 0 1 0 0 0 1 0 0 0 1 0 0 0 1 0 0 0 1 0 0 0 1 0 0 0 1 0 0 0 1 0 0 0 1 0 0 0 1 0 0 0 1 0 0 0 1 0 0 0 1 0 1 0 0 0 1 0 1 0 1 0 0 0 1 0 0 0 1 0 0 0 1 0 0 0 1 0 1 0 0 -1 1 0 0 0 0 -1 0 0 0 0 1 0 0 0 1 -1 0 -1 1 -1 0 0 0 0 0 -1 0 0 0 -1 0 -1 0 -1 0 -1 0 -1 0 0 0 -1 0 0 0 -1 0 -1 0 -1 0 -1 0 -1 0 -1 0 -1 0 0 0 -1 0 0 0 -1 0 -1 0 0 0 -1 0 -1 0 -1 0 -1 0 -1 0 0 0 -1 0 -1 0 0 0 -1 0 0 0 -1 0 -1 0 0 0 -1 0 0 0 -1 0 0 0 -1 0 0 0 -1 0 0 0 -1 0 0 0 -1 0 0 0 -1 0 0 0 -1 0 0 0 -1 0 0 0 -1 0 0 0 -1 0 0 0 -1 0 -1 0 0 0 -1 0 0 0 -1 0 0 0 -1 0 0 0 -1 0 0 0 -1 0 -2 0 -1 0 0 0 -2 0 0 0 -2 0 0 0 -2 0 -2 0 0 0 -2 0 0 0 -2 0 0 0 -2 0 -2 0 -3 1 -2 0 -2 0 0 0 -2 0 -2 0 0 0 -2 0 -2 0 -2 0 0 0 -2 0 0 0 -2 0 -2 0 0 0 -2 0 0 0 -2 0 -2 0 0 0 -4 0 -2 0 -2 0 -2 0 -2 0 -2 0 0 0 -2 0 -2 0 0 0 -2 0 -2 0 -2 0 -2 0 0 0 -2 0 -2 0 -2 0 0 0 -2 0 0 0 -2 0 0 0 -2 0 0 0 -2 0 0 0 -2 0 -2 0 -2 0 -2 0 0 0 -2 0 -2 0 -1 0 0 0 -1 0 -1 0 -1 0 -1 0c23,-2 107,-5 119,-28l0 0 0 -1 0 -1 0 0 0 -1 0 0 0 -1 0 -1 0 -1 0 0 0 -1 0 -1 0 -1 0 -1 0 -1 0 -1 0 -1 0 -1 0 -1 0 0 0 -1 0 -1 0 0 0 -1 0 -1 0 -1 0 -1 0 -1 0 -1 0 0 0 -1 0 -1 0 -1 0 -1 0 -1 0 0 0 -1 0 -1 0 -1 0 0 0 -1 0 -1 0 0 0 -1 0 -1 0 0 0 -1 0 -1 0 -1 0 -1 0 -1 0 -1 0 -1 0 -1 0 -1 0 -1 0 -1 0 0 0 -1 0 -1 0 -1 0 -1 0 -1 0 -1 0 -1 0 0 0 -1 0 -1 0 -1 0 -1 0 -1 0 -1 0 -1 0 -1 0 -1 0 -1 0 -1 0 -1 0 -1 0 -1 0 -1 0 -1 0 -1 0 -1 0 -1 0 -1 0 -1 0 -1 0 -1 0 -1 0 0 0 -1 0 -1 0 -1 0 -1 0 -1 0 -1 0 0 0 -1 0 0 0 -1 0 0 0 0 0 0 0 0 0 0 0 0 0 0 0 0 0 0 0 0 0 0 0 0 0 0 0 0 -1 0 0 0 0 0 0 0 -1 0 0 0 -1 0 -1 0 0 0 -1 0 0 0 -1 0 -1 0 0 0 -1 0 0 0 -1 0 0 0 -1 0 0 0 -1 0 0 0 -1 0 0 0 -1 0 0 0 -1 0 0 0 -1 0 0 0 -1 0 0 0 -1 0 0 0 -1 0 0 0 -1 0 0 0 -1 0 0 0 -1 0 0 0 -1 0 0 0 -1 0 -3 0 -1 0 0 0 -1 0 0 0 -1 0 0 0 -1 0 0 0 -1 0 0 0 -1 0 0 0 -1 0 0 0 -1 0 0 0 -1 0 0 0 -1 0 -1 0 0 0 -1 0 0 0 -1 0 0 0 -1 0 -1 0 0 0 -1 0 0 0 -1 0 0 0 -1 0 -1 0 0 0 -1 0 0 0 -1 0 -1 0 -1 0 -1 0 -1 0 0 0 -1 0 -1 0 -1 0 0 0 -1 0 -1 0 -1 0 -1 0 -1 0 -1 1 -1 0 -1 0 -1 0 -1 1 -1 0 -1 1 0 0 -1 0 -1 1 0 0 -1 1 -1 1 -1 1 -1 1 -1 1 -1 1 -1 1 -1 1 -1 1 -1 1 -1 1 -1 1 -1 1 -1 1 -1 1 -1 1 -1 1 -1 1 -1 1 -1 1 -1 1 -1 1 -1 1 -1 1 -1 1 0 0 0 0 0 0 0 0 0 0 0 0 0 0 0 0 0 0 0 0 0 0 0 0 0 0 0 0 0 0 0 0 0 0 0 0 0 0 0 0 0 0 0 0 0 0 0 0 0 0 0 0 0 0 0 0 0 0 0 0 0 0 0 0 0 0 0 0 0 0 0 0 0 0 0 0 0 0 0 0 0 0 0 0 0 0 0 0 0 0 0 0 0 0 0 0 0 0 0 0 0 0 0 0 0 0 0 0 0 0 0 0 0 0 0 0 0 0 0 0 0 0 0 0 0 0 0 0 0 0 0 0 0 0 0 0 0 0 0 0 0 0 0 0 0 0 0 0 0 0 0 0 0 0 0 0 0 0 0 0 0 0 0 0 0 0 0 0 0 0 0 0 0 0 0 0 0 0 0 0 0 0 0 0 0 0 0 0 0 0 0 0 0 0 0 0 0 0 0 0 0 0 0 0 0 0 0 0 0 0 0 0 0 0 0 0 0 0 0 0 0 0 0 0 0 0 0 0 0 0 0 0 0 0 0 0 0 0 0 0 0 0 0 0 0 0 0 0 0 0 0 0 0 0 0 0 0 0 0 0 0 0 0 0 0 0 0 0 0 0 0 0 0 0 0 0 0 0 0 0 0 0 0 0 0 0 0 0 0 0 0 0 0 0 0 0 0 0 0 0 0 0 0 0 0 0 0 0 0 0 0 0 0 0 0 0 0 0 0 0 0 0 0 0 0 0 0 0 0 0zm-535 41c-33,4 -121,2 -135,-34 -5,-13 -11,-33 -9,-48 2,-20 11,-26 32,-25 41,2 91,32 106,65 -4,-3 -7,-7 -12,-12 -14,-12 -27,-21 -45,-28 -13,-5 -26,-8 -41,-9 -19,-1 -27,4 -26,24 1,12 6,29 12,38 6,9 20,13 32,17 44,12 55,6 86,11zm581 -196c-2,10 -11,28 -16,37 -8,13 -12,20 -22,30 -23,25 -33,25 -77,28 -133,8 -276,9 -409,-1 -42,-3 -51,-12 -71,-34 -13,-14 -32,-46 -38,-66 6,11 12,22 19,33 34,46 48,50 99,53 126,7 268,9 393,1 39,-3 56,0 80,-21 11,-9 34,-42 40,-60zm-640 -36c0,-32 16,-85 26,-113 11,-32 27,-66 49,-90 15,-16 22,-17 50,-19 125,-11 273,-11 399,0 25,2 38,4 51,18 31,35 72,137 74,202 -27,5 -127,4 -160,4 -54,0 -109,0 -163,0 -79,0 -258,4 -325,-2zm-39 -63c-17,-3 -27,-10 -57,-14 -27,-3 -39,0 -40,29 -1,26 8,37 27,45 17,6 38,14 54,19 -3,8 -17,25 -31,64 -9,25 -14,52 -14,81 0,17 4,28 4,42 0,16 0,32 0,47 0,31 0,39 49,45 56,7 124,5 182,5 63,0 126,1 189,1 62,0 125,0 187,-1 46,0 181,4 219,-12 15,-7 14,-14 14,-32 0,-16 0,-32 0,-47 0,-16 4,-29 4,-46 0,-38 -11,-82 -28,-115 -4,-8 -15,-26 -16,-32 15,-3 66,-17 73,-32 4,-8 6,-19 6,-30 -1,-51 -53,-25 -96,-16 -16,-44 -52,-155 -101,-175 -48,-20 -474,-20 -523,0 -37,15 -68,84 -83,124 -4,11 -14,44 -19,52z" />
  </symbol>
  <symbol id="restroom_gents">
   <path class="filH49nz" d="M145 5c-60,12 -97,48 -120,86 -31,51 -23,123 -23,187l0 1031c0,138 -28,255 90,325 51,31 123,23 187,23l1031 0c137,0 256,28 325,-90 31,-52 23,-123 23,-187l0 -1031c0,-52 6,-161 -3,-207 -12,-58 -48,-96 -86,-118 -52,-31 -122,-23 -187,-23 -344,0 -687,0 -1031,0 -53,0 -159,-6 -205,3z" />
   <path class="filWHITE" d="M803 184c-141,38 -75,241 58,202 47,-14 89,-68 71,-132 -13,-48 -66,-87 -129,-70zm-120 403c21,6 15,0 16,33 0,15 -1,32 -1,48l0 702c0,58 3,123 76,108 62,-13 47,-88 46,-155l0 -301c0,-16 0,-32 0,-48 -1,-50 0,-37 11,-44 13,9 6,-1 10,15l1 371c1,64 -16,139 37,158 28,10 57,0 72,-15 19,-20 15,-55 14,-84l0 -743c0,-22 -2,-34 8,-46 15,5 16,-16 14,58l0 230c1,49 39,80 76,49 24,-21 15,-99 15,-137 0,-66 10,-237 -14,-286 -42,-87 -118,-80 -227,-80 -111,0 -183,-13 -233,68 -33,54 -22,408 -12,425 21,36 80,27 84,-27l1 -282c4,-21 -3,-5 7,-17z" />
  </symbol>
  <symbol id="restroom_ladies">
   <path class="filH49nz" d="M145 5c-60,12 -97,48 -120,86 -31,51 -23,123 -23,187l0 1031c0,138 -28,255 90,325 51,31 123,23 187,23l1031 0c137,0 256,28 325,-90 31,-52 23,-123 23,-187l0 -1031c0,-52 6,-161 -3,-207 -12,-58 -48,-96 -86,-118 -52,-31 -122,-23 -187,-23 -344,0 -687,0 -1031,0 -53,0 -159,-6 -205,3z" />
   <path class="filWHITE" d="M805 184c-138,38 -81,237 54,202 47,-12 89,-63 73,-128 -12,-47 -63,-91 -126,-73zm154 869l0 375c0,29 -24,53 -53,53l0 0c-29,0 -52,-24 -52,-53l0 -375 -39 0 0 375c0,29 -24,53 -53,53l0 0c-29,0 -53,-24 -53,-53l0 -375 -122 0 131 -485 -16 0 -67 229c-13,43 -16,95 -72,80 -47,-13 -22,-74 -9,-115 24,-79 46,-164 73,-241 33,-96 95,-102 208,-102 214,0 186,69 275,349 12,36 35,98 -14,110 -50,12 -58,-45 -70,-84 -6,-20 -65,-226 -67,-226l-18 0 130 485 -111 0z" />
  </symbol>
  <symbol id="restroom">
   <path class="filH49nz" d="M230 0l3594 0c108,0 197,89 197,198l0 1260c0,109 -89,198 -197,198l-3594 0c-64,0 -121,-31 -157,-78 -59,-69 -40,-166 -40,-278l0 -1003c0,-32 -2,-66 0,-99l0 -1c0,-109 89,-198 197,-198z" />
   <g>
    <path class="filWHITE" d="M3205 835c8,-15 9,-9 59,-9l208 -2 1 -86 -208 1c-24,0 -49,3 -68,-5l-6 -40 -10 -168c51,-22 65,-10 90,-60 71,-140 -193,-202 -205,-45 -2,28 8,39 13,58l38 507 400 0 165 356 213 -75 -30 -74 -121 42 -158 -344 -375 0 -4 -57z" />
    <path class="filWHITE" d="M3024 1283l-7 -7c-123,-120 -107,-373 52,-447l-8 -113c-25,3 -60,32 -80,45 -187,121 -228,468 8,637 110,79 286,109 426,35 58,-31 109,-82 145,-126 41,-52 31,-67 -21,-160l-19 -27c-21,149 -182,280 -362,236 -54,-14 -111,-42 -133,-74z" />
   </g>
   <g>
    <path class="filWHITE" d="M2418 413c0,46 -45,84 -100,84 -55,0 -100,-38 -100,-84 0,-46 45,-84 100,-84 55,0 100,38 100,84z" />
    <g>
     <path class="filWHITE" d="M2425 929c17,-21 -11,-37 -11,-37l-95 -57c-8,-4 -41,-23 -61,-2 -14,16 -11,32 6,44l64 40c2,2 3,4 1,6l-37 45c-2,2 -4,5 -5,8 -34,62 18,83 35,88 3,1 7,1 10,1l153 0c76,0 74,-40 74,-40l0 -127c0,-2 -2,-28 -33,-28 -22,0 -27,17 -27,24 0,2 0,6 0,9l0 49c0,2 -2,4 -5,4l-88 0c-3,0 -4,-2 -2,-3 11,-12 16,-18 21,-24z" />
     <path class="filWHITE" d="M2720 1005c0,33 -32,59 -70,59 -39,0 -70,-27 -70,-59 0,-33 32,-59 70,-59 39,0 70,27 70,59z" />
    </g>
    <path class="filWHITE" d="M2720 1096c0,-13 -12,-23 -28,-23l-415 0c-15,0 -28,10 -28,23 0,13 12,23 28,23l415 0c15,0 28,-10 28,-23z" />
    <path class="filWHITE" d="M1611 1073l216 0 0 350c0,30 29,54 64,54 35,0 64,-24 64,-54l0 -350 174 0c13,0 21,-9 17,-19l-100 -313c-3,-10 3,-24 14,-29l161 -84 12 100 197 127c7,5 16,7 25,7 12,0 24,-5 32,-13 14,-15 10,-36 -7,-48l-169 -109 -12 -105c-1,-5 -3,-10 -5,-14 -1,-1 -2,-3 -3,-4l-1 -1c0,0 0,0 -1,-1l-168 -160c-9,-8 -22,-8 -30,1l-251 254c-8,9 -19,23 -25,33l-216 361c-6,10 -1,17 12,17z" />
   </g>
   <g>
    <polygon class="filWHITE" points="767,1113 767,1336 767,1475 817,1476 818,180 810,180 767,180 " />
    <g>
     <path class="filWHITE" d="M259 586c21,6 15,0 15,33 0,15 -1,32 -1,48l0 700c0,58 3,123 76,108 62,-13 47,-88 46,-155l0 -300c0,-16 0,-32 0,-47 -1,-50 1,-36 11,-44 13,9 6,-1 10,15l1 370c1,64 -16,139 37,158 28,10 57,0 71,-15 19,-20 15,-55 14,-84l0 -741c0,-22 -2,-34 8,-45 15,5 16,-16 14,57l0 230c1,48 39,80 76,49 24,-21 15,-99 15,-137 0,-66 10,-236 -14,-285 -42,-87 -118,-80 -226,-80 -111,0 -182,-13 -233,68 -33,53 -22,407 -12,424 21,36 80,27 84,-27l1 -282c4,-21 -3,-5 7,-17z" />
     <path class="filWHITE" d="M378 184c-140,38 -75,241 58,202 47,-14 89,-67 71,-132 -13,-48 -66,-87 -128,-70z" />
    </g>
    <path class="filWHITE" d="M1184 233c-133,37 -77,227 52,193 45,-12 86,-61 70,-123 -12,-46 -60,-87 -121,-71zm147 834l0 359c0,28 -23,50 -50,50l0 0c-28,0 -50,-23 -50,-50l0 -359 -38 0 0 359c0,28 -23,50 -50,50l0 0c-28,0 -50,-23 -50,-50l0 -359 -117 0 125 -465 -15 0 -64 219c-13,41 -16,91 -69,77 -45,-12 -21,-71 -9,-110 23,-76 45,-157 70,-231 31,-92 91,-97 199,-97 206,0 178,66 264,335 11,35 33,94 -14,106 -48,12 -55,-43 -67,-80 -6,-20 -63,-217 -64,-217l-18 0 125 465 -106 0z" />
   </g>
  </symbol>
 </defs>

 <g id="Base">
  <path class="filHE6" d="M26239 50431c0,0 -9500,750 -10750,750 -1250,0 -4250,250 -4625,-875 -375,-1125 -1500,-1875 -1250,-6000 354,-5834 -2781,-26705 -2000,-31000 250,-1375 375,-2875 1000,-4250 3447,-7583 12792,-2788 22250,-5625 8277,-2483 9901,2244 16375,2625 2125,125 4125,125 4125,125 12269,227 2376,2475 12875,3875 19681,2624 9732,6964 13375,20625 500,1875 750,6750 375,9000 -1469,8817 -3066,10780 -12037,10780 -3302,0 -14027,-3745 -17026,-2592 -9153,3520 -13106,1510 -22688,2563z" />
  <path class="filWHITE" d="M32922 25312c-15,103 -34,1342 1215,1388l-4 2414 7778 -33c4126,-8291 -7960,-10865 -8989,-3768z" />
 </g>

 <g id="Rooms">
  <!-- S1 -->
  <a id="R4101" name="Flame House 24" xlink:href="#">
   <polygon class="filH356" points="12083,9542 18410,9542 18387,10488 22903,10470 22903,14949 12083,14949 " />
   <text x="12934" y="12604" class="filWHITE fntA10">FLAME HOUSE 24</text>
  </a>
  <a id="R4102" name="Wat A Burger" xlink:href="#">
   <polygon class="filH89A" points="25091,9767 27072,9767 27072,14960 25091,14960 25091,13826 25091,13755 " />
   <g transform="matrix(2.64845E-14 -1 1 2.64845E-14 -1039.7 60356.8)">
    <text x="46893" y="27000" class="filWHITE fntA7">WAT A</text>
    <text x="46439" y="27652" class="filWHITE fntA7">BURGER!</text>
   </g>
  </a>
  <a id="R4103" name="FC-303" xlink:href="#">
   <polygon class="filH89A" points="27190,9767 29285,9767 29285,14960 27190,14960 27190,13826 27190,13755 " />
   <g transform="matrix(2.64845E-14 -1 1 2.64845E-14 1446.57 60372)">
    <text x="46827" y="27000" class="filWHITE fntA7">FC-303</text>
   </g>
  </a>
  <a id="R4104" name="Salkara" xlink:href="#">
   <polygon class="filH89A" points="29404,9767 31499,9767 31499,14960 29404,14960 29404,13826 29404,13755 " />
   <g transform="matrix(2.64845E-14 -1 1 2.64845E-14 3660.37 60372.3)">
    <text x="46374" y="27000" class="filWHITE fntA7">SALKARA</text>
   </g>
  </a>
  <a id="R4105" name="Chicking" xlink:href="#">
   <polygon class="filH89A" points="31618,9767 34790,9767 34790,14960 31618,14960 31618,13826 31618,13755 " />
   <g transform="matrix(2.64845E-14 -1 1 2.64845E-14 6412.89 60359.3)">
    <text x="46200" y="27000" class="filWHITE fntA7">CHICKING</text>
   </g>
  </a>
  <a id="R4106" name="BR" xlink:href="#">
   <polygon class="filH89A" points="34898,9767 35480,9767 35485,11445 37656,11462 37656,14960 34898,14960 34898,13826 34898,13755 " />
   <text x="35836" y="13420" class="filWHITE fntA7">BR</text>
  </a>
  <g id="R4197" name="FC-307">
   <rect class="filH89A" x="37764" y="9767" width="1556" height="2296" />
   <polygon class="filH89A" points="39361,9767 40051,9767 40051,12109 40712,12109 40712,13323 37764,13323 37764,12109 39361,12109 " />
   <text x="38561" y="12963" class="filWHITE fntA4">FC-307</text>
  </g>
  <a id="R4107" name="Nagas" xlink:href="#">
   <rect class="filH89A" x="37764" y="13363" width="1440" height="1598" />
   <text x="37900" y="14250" class="filWHITE fntA3">NAGAS</text>
  </a>
  <a id="R4108" name="Fujian Express" xlink:href="#">
   <rect class="filH89A" x="39215" y="13363" width="1500" height="1598" />
   <text x="39475" y="14050" class="filWHITE fntA3">FUJIN</text>
   <text x="39200" y="14450" class="filWHITE fntA3">EXPRESS</text>
  </a>
  <g id="R4198" name="FC-308">
   <rect class="filH89A" x="40824" y="12655" width="3204" height="661" />
   <text x="41677" y="13124" class="filWHITE fntA4">FC-308</text>
  </g>
  <a id="R4109" name="Tea Point" xlink:href="#">
   <rect class="filH89A" x="40824" y="13363" width="1604" height="1598" />
   <text x="41300" y="14050" class="filWHITE fntA3">TEA</text>
   <text x="41100" y="14450" class="filWHITE fntA3">POINT</text>
  </a>
  <a id="R4110" name="Duck Of Juices" xlink:href="#">
   <rect class="filH89A" x="42438" y="13363" width="1604" height="1598" />
   <text x="42500" y="14050" class="filWHITE fntA3">DUCK OF</text>
   <text x="42700" y="14450" class="filWHITE fntA3">JUICES</text>
  </a>
  <a id="R4111" name="Ricotta Pizza" xlink:href="#">
   <polygon class="filH89A" points="44268,9767 46178,9767 46178,14960 44268,14960 44268,13826 44268,13755 " />
   <g transform="matrix(2.64845E-14 -1 1 2.64845E-14 18109.6 60383.4)">
    <text x="46400" y="27000" class="filWHITE fntA7">RICOTTA</text>
    <text x="46800" y="27652" class="filWHITE fntA7">PIZZA</text>
   </g>
  </a>
  <a id="R4112" name="Falooda Nation" xlink:href="#">
   <polygon class="filH89A" points="46305,9767 48300,9767 48300,14960 46305,14960 46305,13826 46305,13755 " />
   <g transform="matrix(2.64845E-14 -1 1 2.64845E-14 20185.6 60383.4)">
    <text x="46400" y="27000" class="filWHITE fntA7">FALOODA</text>
    <text x="46600" y="27652" class="filWHITE fntA7">NATION</text>
   </g>
  </a>
  <a id="R4113" name="Chickos" xlink:href="#">
   <polygon class="filH89A" points="48427,9767 50423,9767 50423,14960 48427,14960 48427,13826 48427,13755 " />
   <g transform="matrix(2.64845E-14 -1 1 2.64845E-14 22633.6 60362.5)">
    <text x="46400" y="27000" class="filWHITE fntA7">CHICKOS</text>
   </g>
  </a>
  <a id="R4114" name="Fatoor" xlink:href="#">
   <polygon class="filH89A" points="50549,9767 52673,9767 52673,14960 50549,14960 50549,13826 50549,13755 " />
   <g transform="matrix(2.64845E-14 -1 1 2.64845E-14 24819.8 60383.1)">
    <text x="46500" y="27000" class="filWHITE fntA7">FATOOR</text>
   </g>
  </a>
  <a id="R4115" name="Charminar" xlink:href="#">
   <polygon class="filH89A" points="52800,9767 54923,9767 54923,14960 52800,14960 52800,13826 52800,13755 " />
   <g transform="matrix(2.64845E-14 -1 1 2.64845E-14 27070.4 60375.6)">
    <text x="45650" y="27000" class="filWHITE fntA7">CHARMINAR</text>
   </g>
  </a>
  <a id="R4116" name="Veggie Bhavan" xlink:href="#">
   <polygon class="filH89A" points="55050,9767 57042,9767 57042,14960 55050,14960 55050,13826 55050,13755 " />
   <g transform="matrix(2.64845E-14 -1 1 2.64845E-14 28932.5 60361.3)">
    <text x="46500" y="27000" class="filWHITE fntA7">VEGGIE</text>
    <text x="46400" y="27652" class="filWHITE fntA7">BHAVAN</text>
   </g>
  </a>

  <!-- S2 -->
  <a id="R4120" name="Terrace Seating" xlink:href="#">
   <rect class="filH356" x="13434" y="15017" width="4997" height="13956" />
   <g transform="matrix(2.64845E-14 -1 1 2.64845E-14 -11268.4 69981.1)">
    <text x="45583" y="27000" class="filWHITE fntA10">TERRACE</text>
    <text x="45815" y="28117" class="filWHITE fntA10">SEATING</text>
   </g>
  </a>
  <a id="R4121" name="Cinepolis" xlink:href="#">
   <polygon class="filH356" points="12100,29000 27100,29000 27100,31200 25000,31200 25000,34750 27100,34750 27100,39800 31400,39800 31400,29000 57000,29000 57000,41200 50800,41200 50800,42700 31600,42700 31600,42300 28100,42300 28100,44000 25000,44000 25000,48400 12100,48400 " />
   <text x="23700" y="41400" class="filWHITE fntA12">CINEPOLIS</text>
   <rect class="filH89A" x="12250" y="29629" width="8300" height="8990" />
   <text x="14500" y="34400" class="filWHITE fntA10">AUDI 1</text>
   <rect class="filH89A" x="12250" y="39460" width="8300" height="8530" />
   <text x="14500" y="44000" class="filWHITE fntA10">AUDI 2</text>
   <rect class="filH89A" x="31650" y="29260" width="8300" height="8990" />
   <text x="33950" y="33500" class="filWHITE fntA10">AUDI 3</text>
   <rect class="filH89A" x="40050" y="29260" width="8300" height="8990" />
   <text x="42350" y="33500" class="filWHITE fntA10">AUDI 4</text>
   <rect class="filH89A" x="48450" y="29260" width="8300" height="7850" />
   <text x="50750" y="33500" class="filWHITE fntA10">AUDI 5</text>
  </a>
  <a id="R4122" name="Amoeba" xlink:href="#">
   <polygon class="filH356" points="58700,20300 72700,20300 72700,21300 75450,21300 75450,38600 72650,38600 72650,44100 67300,44100 67300,28100 58700,28100 " />
   <text x="64000" y="24712" class="filWHITE fntA12">AMOEBA</text>
  </a>
  <a id="R4123" name="" xlink:href="#">
   <polygon class="filH89A" points="62600,44100 62600,41000 59400,41000 59400,39100 58700,39100 58700,28100 67300,28100 67300,44100 " />
  </a>

  <!-- ST -->
  <a id="R4201" name="4 A" xlink:href="#">
   <rect class="filH89A" x="57000" y="17500" width="1700" height="2700" />
  </a>
  <a id="R4202" name="4 B" xlink:href="#">
   <rect class="filH89A" x="45250" y="27100" width="1900" height="1900" />
  </a>
  <a id="R4203" name="4 C" xlink:href="#">
   <rect class="filH89A" x="48500" y="27100" width="1900" height="1900" />
  </a>
  <a id="R4204" name="4 D" xlink:href="#">
   <rect class="filH89A" x="51750" y="27100" width="1900" height="1900" />
  </a>
  <a id="R4205" name="4 E" xlink:href="#">
   <rect class="filH89A" x="55000" y="27100" width="1900" height="1900" />
  </a>

  <!-- RestRooms -->
  <a id="R4801" name="Restroom" class="amenity_restroom" xlink:href="#">
   <polygon class="filCDD" points="58700,13200 72700,13200 72700,20300 58700,20300 58700,17500 60250,17500 60250,15600 58700,15600 " />
  </a>
  <g class="restroom">
   <use xlink:href="#restroom_gents" x="61490" y="18470" />
   <use xlink:href="#restroom_ladies" x="61490" y="13400" />
  </g>

  <!-- Portals -->
  <g name="Elevator" class="elevator">
   <rect class="filBASE" x="25258" y="31606" width="1660" height="1660" />
   <use xlink:href="#elevator" x="25258" y="31606" />
  </g>
  <g name="Elevator" class="elevator">
   <rect class="filBASE" x="28568" y="31606" width="1660" height="1660" />
   <use xlink:href="#elevator" x="28568" y="31606" />
  </g>
  <!--
  <g name="Elevator" class="elevator">
   <rect class="filBASE" x="29587" y="42288" width="1660" height="1660" />
   <use xlink:href="#elevator" x="29587" y="42288" />
  </g>
  <g name="Elevator" class="elevator">
   <rect class="filBASE" x="41627" y="11050" width="1660" height="1660" />
   <use xlink:href="#elevator" x="41627" y="11050" />
  </g>
  -->

  <g name="Escalator" class="escalator">
   <rect class="filWHITE" x="34200" y="26850" width="2100" height="1660" />
   <use xlink:href="#escalator" x="34200" y="26850" />
  </g>

  <g name="Fire Escape Stair" class="fire_escape_stair">
   <use xlink:href="#fire_escape_stair" x="20663" y="8300" />
  </g>
  <g name="Fire Escape Stair" class="fire_escape_stair">
   <use xlink:href="#fire_escape_stair" x="39919" y="5873" />
  </g>
  <g name="Fire Escape Stair" class="fire_escape_stair">
   <use xlink:href="#fire_escape_stair" x="27500" y="36854" />
  </g>
  <g name="Fire Escape Stair" class="fire_escape_stair">
   <use xlink:href="#fire_escape_stair" x="52657" y="41821" />
  </g>
  <g name="Fire Escape Stair" class="fire_escape_stair">
   <use xlink:href="#fire_escape_stair" x="27012" y="46101" />
  </g>
 </g>

 <g id="Paths">
  <!-- Door connectivity lines -->
  <!-- S1 -->
  <line class="filP strP" x1="22057" y1="16462" x2="22057" y2="14782" />
  <line class="filP strP" x1="26181" y1="16462" x2="26181" y2="14782" />
  <line class="filP strP" x1="28338" y1="16462" x2="28338" y2="14782" />
  <line class="filP strP" x1="30552" y1="16462" x2="30552" y2="14782" />
  <line class="filP strP" x1="33304" y1="16462" x2="33304" y2="14782" />
  <line class="filP strP" x1="36377" y1="16462" x2="36377" y2="14782" />
  <line class="filP strP" x1="38599" y1="16462" x2="38599" y2="14782" />
  <line class="filP strP" x1="40070" y1="16462" x2="40070" y2="14782" />
  <line class="filP strP" x1="41731" y1="16462" x2="41731" y2="14782" />
  <line class="filP strP" x1="43345" y1="16462" x2="43345" y2="14782" />
  <line class="filP strP" x1="45323" y1="16462" x2="45323" y2="14782" />
  <line class="filP strP" x1="47403" y1="16462" x2="47403" y2="14782" />
  <line class="filP strP" x1="49525" y1="16462" x2="49525" y2="14782" />
  <line class="filP strP" x1="51711" y1="16462" x2="51711" y2="14782" />
  <line class="filP strP" x1="53961" y1="16462" x2="53961" y2="14782" />
  <line class="filP strP" x1="56146" y1="16462" x2="56146" y2="14782" />

  <!-- S2 -->
  <line class="filP strP" x1="22057" y1="21895" x2="18200" y2="21895" />
  <line class="filP strP" x1="22057" y1="27678" x2="22057" y2="29329" />
  <line class="filP strP" x1="56146" y1="24354" x2="58900" y2="24354" />

  <!-- ST -->
  <line class="filP strP" x1="46322" y1="25775" x2="46322" y2="27332" />
  <line class="filP strP" x1="49550" y1="25775" x2="49550" y2="27332" />
  <line class="filP strP" x1="52807" y1="25775" x2="52807" y2="27332" />
  <line class="filP strP" x1="56146" y1="25775" x2="56146" y2="27332" />
  <line class="filP strP" x1="56146" y1="18825" x2="57144" y2="18825" />

  <!-- RestRooms -->
  <line class="filP strP" x1="56146" y1="16462" x2="58835" y2="16462" />

  <!-- Portals -->
  <line class="filP strP" x1="27745" y1="32432" x2="26090" y2="32432" />
  <line class="filP strP" x1="27745" y1="32432" x2="29400" y2="32432" />

  <line class="filP strP" x1="32000" y1="27678" x2="35250" y2="27678" />

  <!-- Horizontal lines -->
  <!-- 1 -->
  <line class="filP strP" x1="22057" y1="16462" x2="26181" y2="16462" />
  <line class="filP strP" x1="26181" y1="16462" x2="27745" y2="16462" />
  <line class="filP strP" x1="27745" y1="16462" x2="28338" y2="16462" />
  <line class="filP strP" x1="28338" y1="16462" x2="30552" y2="16462" />
  <line class="filP strP" x1="30552" y1="16462" x2="33304" y2="16462" />
  <line class="filP strP" x1="33304" y1="16462" x2="36377" y2="16462" />
  <line class="filP strP" x1="36377" y1="16462" x2="38599" y2="16462" />
  <line class="filP strP" x1="38599" y1="16462" x2="40070" y2="16462" />
  <line class="filP strP" x1="40070" y1="16462" x2="41731" y2="16462" />
  <line class="filP strP" x1="41731" y1="16462" x2="43345" y2="16462" />
  <line class="filP strP" x1="43345" y1="16462" x2="45323" y2="16462" />
  <line class="filP strP" x1="45323" y1="16462" x2="47403" y2="16462" />
  <line class="filP strP" x1="47403" y1="16462" x2="49525" y2="16462" />
  <line class="filP strP" x1="49525" y1="16462" x2="51711" y2="16462" />
  <line class="filP strP" x1="51711" y1="16462" x2="53961" y2="16462" />
  <line class="filP strP" x1="53961" y1="16462" x2="56146" y2="16462" />

  <!-- 2 -->
  <line class="filP strP" x1="22057" y1="27678" x2="27745" y2="27678" />
  <line class="filP strP" x1="27745" y1="27678" x2="32000" y2="27678" />
  <line class="filP strP" x1="32000" y1="20350" x2="44050" y2="20350" />
  <line class="filP strP" x1="44050" y1="25775" x2="46322" y2="25775" />
  <line class="filP strP" x1="46322" y1="25775" x2="49550" y2="25775" />
  <line class="filP strP" x1="49550" y1="25775" x2="52807" y2="25775" />
  <line class="filP strP" x1="52807" y1="25775" x2="56146" y2="25775" />

  <!-- Vertical lines -->

  <line class="filP strP" x1="22057" y1="16462" x2="22057" y2="21895" />
  <line class="filP strP" x1="22057" y1="21895" x2="22057" y2="27678" />

  <line class="filP strP" x1="27745" y1="16462" x2="27745" y2="27678" />

  <line class="filP strP" x1="32000" y1="20350" x2="32000" y2="27678" />

  <line class="filP strP" x1="44050" y1="20350" x2="44050" y2="25775" />

  <line class="filP strP" x1="56146" y1="16462" x2="56146" y2="18825" />
  <line class="filP strP" x1="56146" y1="18825" x2="56146" y2="24354" />
  <line class="filP strP" x1="56146" y1="24354" x2="56146" y2="25775" />

  <line class="filP strP" x1="27745" y1="27678" x2="27745" y2="32432" />
  <line class="filP strP" x1="27745" y1="32432" x2="27745" y2="36985" />
 </g>

 <g id="Portals">
  <line id="Elev.1.floorB2" class="filPo strPo" x1="26090" y1="32432" x2="26090" y2="32832" />
  <line id="Elev.1.floorB1" class="filPo strPo" x1="26090" y1="32432" x2="26090" y2="32832" />
  <line id="Elev.1.floorG" class="filPo strPo" x1="26090" y1="32432" x2="26090" y2="32832" />
  <line id="Elev.1.floor1" class="filPo strPo" x1="26090" y1="32432" x2="26090" y2="32832" />
  <line id="Elev.1.floor2" class="filPo strPo" x1="26090" y1="32432" x2="26090" y2="32832" />
  <line id="Elev.1.floor3" class="filPo strPo" x1="26090" y1="32432" x2="26090" y2="32832" />

  <line id="Elev.2.floorB2" class="filPo strPo" x1="29400" y1="32432" x2="29400" y2="32832" />
  <line id="Elev.2.floorB1" class="filPo strPo" x1="29400" y1="32432" x2="29400" y2="32832" />
  <line id="Elev.2.floorG" class="filPo strPo" x1="29400" y1="32432" x2="29400" y2="32832" />
  <line id="Elev.2.floor1" class="filPo strPo" x1="29400" y1="32432" x2="29400" y2="32832" />
  <line id="Elev.2.floor2" class="filPo strPo" x1="29400" y1="32432" x2="29400" y2="32832" />
  <line id="Elev.2.floor3" class="filPo strPo" x1="29400" y1="32432" x2="29400" y2="32832" />

  <line id="Stair.1.floor3" class="filPo strPo" x1="35250" y1="27678" x2="35250" y2="28078" />
 </g>

 <g id="Doors">
  <!-- <line id="lcd.1" class="filD strD" x1="27745" y1="30280" x2="27745" y2="32432" /> -->
  <!-- S1 -->
  <line id="R4101_1_" class="filD strD" x1="22057" y1="14782" x2="21857" y2="14782" />
  <line id="R4102_1_" class="filD strD" x1="26181" y1="14782" x2="25981" y2="14782" />
  <line id="R4103_1_" class="filD strD" x1="28338" y1="14782" x2="28138" y2="14782" />
  <line id="R4104_1_" class="filD strD" x1="30552" y1="14782" x2="30352" y2="14782" />
  <line id="R4105_1_" class="filD strD" x1="33304" y1="14782" x2="33104" y2="14782" />
  <line id="R4106_1_" class="filD strD" x1="36377" y1="14782" x2="36177" y2="14782" />
  <line id="R4107_1_" class="filD strD" x1="38599" y1="14782" x2="38399" y2="14782" />
  <line id="R4108_1_" class="filD strD" x1="40070" y1="14782" x2="39870" y2="14782" />
  <line id="R4109_1_" class="filD strD" x1="41731" y1="14782" x2="41531" y2="14782" />
  <line id="R4110_1_" class="filD strD" x1="43345" y1="14782" x2="43145" y2="14782" />
  <line id="R4111_1_" class="filD strD" x1="45323" y1="14782" x2="45123" y2="14782" />
  <line id="R4112_1_" class="filD strD" x1="47403" y1="14782" x2="47203" y2="14782" />
  <line id="R4113_1_" class="filD strD" x1="49525" y1="14782" x2="49325" y2="14782" />
  <line id="R4114_1_" class="filD strD" x1="51711" y1="14782" x2="51511" y2="14782" />
  <line id="R4115_1_" class="filD strD" x1="53961" y1="14782" x2="53761" y2="14782" />
  <line id="R4116_1_" class="filD strD" x1="56146" y1="14782" x2="55946" y2="14782" />

  <!-- S2 -->
  <line id="R4120_1_" class="filD strD" x1="18200" y1="21895" x2="18200" y2="22095" />
  <line id="R4121_1_" class="filD strD" x1="22057" y1="29329" x2="21857" y2="29329" />
  <line id="R4122_1_" class="filD strD" x1="58900" y1="24354" x2="58900" y2="24554" />

  <!-- ST -->
  <line id="R4201_1_" class="filD strD" x1="57144" y1="18825" x2="57144" y2="19025" />
  <line id="R4202_1_" class="filD strD" x1="46322" y1="27332" x2="46122" y2="27332" />
  <line id="R4203_1_" class="filD strD" x1="49550" y1="27332" x2="49350" y2="27332" />
  <line id="R4204_1_" class="filD strD" x1="52807" y1="27332" x2="52607" y2="27332" />
  <line id="R4205_1_" class="filD strD" x1="56146" y1="27332" x2="55946" y2="27332" />

  <!-- RestRooms -->
  <line id="R4801_1_" class="filD strD" x1="58835" y1="16462" x2="59035" y2="16462" />
  i
 </g>
</svg>
